<svg width="94" height="95" viewBox="0 0 94 95" fill="none" xmlns="http://www.w3.org/2000/svg">
<g opacity="0.6">
<path d="M2.67633 5.96019C4.15443 5.96019 5.35266 4.76166 5.35266 3.2832C5.35266 1.80473 4.15443 0.606201 2.67633 0.606201C1.19823 0.606201 0 1.80473 0 3.2832C0 4.76166 1.19823 5.96019 2.67633 5.96019Z" fill="white"/>
<path d="M2.67633 23.6891C4.15443 23.6891 5.35266 22.4906 5.35266 21.0121C5.35266 19.5336 4.15443 18.3351 2.67633 18.3351C1.19823 18.3351 0 19.5336 0 21.0121C0 22.4906 1.19823 23.6891 2.67633 23.6891Z" fill="white"/>
<path d="M5.35388 38.7424C5.35388 37.2641 4.15549 36.0641 2.67755 36.0641C1.19839 36.0654 0 37.2641 0 38.7424C0 40.2207 1.19839 41.4194 2.67633 41.4194C4.15549 41.4206 5.35388 40.2219 5.35388 38.7424Z" fill="white"/>
<path d="M5.35388 56.4713C5.35388 54.993 4.15549 53.7943 2.67755 53.7943C1.19839 53.7943 0 54.993 0 56.4713C0 57.9496 1.19839 59.1483 2.67633 59.1483C4.15549 59.1495 5.35388 57.9508 5.35388 56.4713Z" fill="white"/>
<path d="M2.67633 76.8772C4.15443 76.8772 5.35266 75.6787 5.35266 74.2002C5.35266 72.7217 4.15443 71.5232 2.67633 71.5232C1.19823 71.5232 0 72.7217 0 74.2002C0 75.6787 1.19823 76.8772 2.67633 76.8772Z" fill="white"/>
<path d="M2.67633 94.6062C4.15443 94.6062 5.35266 93.4076 5.35266 91.9291C5.35266 90.4506 4.15443 89.2521 2.67633 89.2521C1.19823 89.2521 0 90.4506 0 91.9291C0 93.4076 1.19823 94.6062 2.67633 94.6062Z" fill="white"/>
<path d="M20.4056 5.96019C21.8837 5.96019 23.0819 4.76166 23.0819 3.2832C23.0819 1.80473 21.8837 0.606201 20.4056 0.606201C18.9275 0.606201 17.7292 1.80473 17.7292 3.2832C17.7292 4.76166 18.9275 5.96019 20.4056 5.96019Z" fill="white"/>
<path d="M20.4056 23.6891C21.8837 23.6891 23.0819 22.4906 23.0819 21.0121C23.0819 19.5336 21.8837 18.3351 20.4056 18.3351C18.9275 18.3351 17.7292 19.5336 17.7292 21.0121C17.7292 22.4906 18.9275 23.6891 20.4056 23.6891Z" fill="white"/>
<path d="M23.0831 38.7424C23.0831 37.2641 21.8847 36.0641 20.4068 36.0641C18.9289 36.0641 17.7305 37.2628 17.7305 38.7424C17.7305 40.2207 18.9289 41.4194 20.4068 41.4194C21.8835 41.4206 23.0831 40.2219 23.0831 38.7424Z" fill="white"/>
<path d="M23.0831 56.4713C23.0831 54.993 21.8847 53.7943 20.4068 53.7943C18.9289 53.7943 17.7305 54.993 17.7305 56.4713C17.7305 57.9496 18.9289 59.1483 20.4068 59.1483C21.8835 59.1495 23.0831 57.9508 23.0831 56.4713Z" fill="white"/>
<path d="M20.4056 76.8772C21.8837 76.8772 23.0819 75.6787 23.0819 74.2002C23.0819 72.7217 21.8837 71.5232 20.4056 71.5232C18.9275 71.5232 17.7292 72.7217 17.7292 74.2002C17.7292 75.6787 18.9275 76.8772 20.4056 76.8772Z" fill="white"/>
<path d="M20.4056 94.6062C21.8837 94.6062 23.0819 93.4076 23.0819 91.9291C23.0819 90.4506 21.8837 89.2521 20.4056 89.2521C18.9275 89.2521 17.7292 90.4506 17.7292 91.9291C17.7292 93.4076 18.9275 94.6062 20.4056 94.6062Z" fill="white"/>
<path d="M40.8112 3.2832C40.8112 1.80489 39.6127 0.606201 38.1348 0.606201C36.6568 0.606201 35.4584 1.80489 35.4584 3.2832C35.4584 4.7615 36.6568 5.96019 38.1348 5.96019C39.6127 5.96141 40.8112 4.76272 40.8112 3.2832Z" fill="white"/>
<path d="M40.8112 21.0121C40.8112 19.5338 39.6127 18.3351 38.1348 18.3351C36.6568 18.3351 35.4584 19.5338 35.4584 21.0121C35.4584 22.4904 36.6568 23.6891 38.1348 23.6891C39.6127 23.6903 40.8112 22.4916 40.8112 21.0121Z" fill="white"/>
<path d="M40.8124 38.7424C40.8124 37.2641 39.614 36.0641 38.136 36.0641C36.6581 36.0641 35.4597 37.2628 35.4597 38.7424C35.4597 40.2207 36.6581 41.4194 38.136 41.4194C39.614 41.4206 40.8124 40.2219 40.8124 38.7424Z" fill="white"/>
<path d="M40.8124 56.4713C40.8124 54.993 39.614 53.7943 38.136 53.7943C36.6581 53.7943 35.4597 54.993 35.4597 56.4713C35.4597 57.9496 36.6581 59.1483 38.136 59.1483C39.614 59.1495 40.8124 57.9508 40.8124 56.4713Z" fill="white"/>
<path d="M40.8112 74.2002C40.8112 72.7219 39.6127 71.5232 38.1348 71.5232C36.6568 71.5232 35.4584 72.7219 35.4584 74.2002C35.4584 75.6785 36.6568 76.8772 38.1348 76.8772C39.6127 76.8784 40.8112 75.6797 40.8112 74.2002Z" fill="white"/>
<path d="M40.8112 91.9291C40.8112 90.4508 39.6127 89.2521 38.1348 89.2521C36.6568 89.2521 35.4584 90.4508 35.4584 91.9291C35.4584 93.4074 36.6568 94.6062 38.1348 94.6062C39.6127 94.6074 40.8112 93.4087 40.8112 91.9291Z" fill="white"/>
<path d="M55.864 5.96019C57.342 5.96019 58.5403 4.76166 58.5403 3.2832C58.5403 1.80473 57.342 0.606201 55.864 0.606201C54.3859 0.606201 53.1876 1.80473 53.1876 3.2832C53.1876 4.76166 54.3859 5.96019 55.864 5.96019Z" fill="white"/>
<path d="M55.864 23.6891C57.342 23.6891 58.5403 22.4906 58.5403 21.0121C58.5403 19.5336 57.342 18.3351 55.864 18.3351C54.3859 18.3351 53.1876 19.5336 53.1876 21.0121C53.1876 22.4906 54.3859 23.6891 55.864 23.6891Z" fill="white"/>
<path d="M58.5416 38.7424C58.5416 37.2641 57.3432 36.0641 55.8652 36.0641C54.3873 36.0641 53.1888 37.2628 53.1888 38.7424C53.1888 40.2207 54.3873 41.4194 55.8652 41.4194C57.3432 41.4206 58.5416 40.2219 58.5416 38.7424Z" fill="white"/>
<path d="M58.5416 56.4713C58.5416 54.993 57.3432 53.7943 55.8652 53.7943C54.3873 53.7943 53.1888 54.993 53.1888 56.4713C53.1888 57.9496 54.3873 59.1483 55.8652 59.1483C57.3432 59.1495 58.5416 57.9508 58.5416 56.4713Z" fill="white"/>
<path d="M55.864 76.8772C57.342 76.8772 58.5403 75.6787 58.5403 74.2002C58.5403 72.7217 57.342 71.5232 55.864 71.5232C54.3859 71.5232 53.1876 72.7217 53.1876 74.2002C53.1876 75.6787 54.3859 76.8772 55.864 76.8772Z" fill="white"/>
<path d="M55.864 94.6062C57.342 94.6062 58.5403 93.4076 58.5403 91.9291C58.5403 90.4506 57.342 89.2521 55.864 89.2521C54.3859 89.2521 53.1876 90.4506 53.1876 91.9291C53.1876 93.4076 54.3859 94.6062 55.864 94.6062Z" fill="white"/>
<path d="M73.5932 5.96019C75.0713 5.96019 76.2695 4.76166 76.2695 3.2832C76.2695 1.80473 75.0713 0.606201 73.5932 0.606201C72.1151 0.606201 70.9169 1.80473 70.9169 3.2832C70.9169 4.76166 72.1151 5.96019 73.5932 5.96019Z" fill="white"/>
<path d="M73.5932 23.6891C75.0713 23.6891 76.2695 22.4906 76.2695 21.0121C76.2695 19.5336 75.0713 18.3351 73.5932 18.3351C72.1151 18.3351 70.9169 19.5336 70.9169 21.0121C70.9169 22.4906 72.1151 23.6891 73.5932 23.6891Z" fill="white"/>
<path d="M76.2708 38.7424C76.2708 37.2641 75.0724 36.0641 73.5944 36.0641C72.1165 36.0641 70.9181 37.2628 70.9181 38.7424C70.9181 40.2207 72.1165 41.4194 73.5944 41.4194C75.0724 41.4206 76.2708 40.2219 76.2708 38.7424Z" fill="white"/>
<path d="M76.2708 56.4713C76.2708 54.993 75.0724 53.7943 73.5944 53.7943C72.1165 53.7943 70.9181 54.993 70.9181 56.4713C70.9181 57.9496 72.1165 59.1483 73.5944 59.1483C75.0724 59.1495 76.2708 57.9508 76.2708 56.4713Z" fill="white"/>
<path d="M73.5932 76.8772C75.0713 76.8772 76.2695 75.6787 76.2695 74.2002C76.2695 72.7217 75.0713 71.5232 73.5932 71.5232C72.1151 71.5232 70.9169 72.7217 70.9169 74.2002C70.9169 75.6787 72.1151 76.8772 73.5932 76.8772Z" fill="white"/>
<path d="M73.5932 94.6062C75.0713 94.6062 76.2695 93.4076 76.2695 91.9291C76.2695 90.4506 75.0713 89.2521 73.5932 89.2521C72.1151 89.2521 70.9169 90.4506 70.9169 91.9291C70.9169 93.4076 72.1151 94.6062 73.5932 94.6062Z" fill="white"/>
<path d="M93.9988 3.2832C93.9988 1.80489 92.8004 0.606201 91.3224 0.606201C89.8444 0.606201 88.646 1.80489 88.646 3.2832C88.646 4.7615 89.8444 5.96019 91.3224 5.96019C92.8004 5.96141 93.9988 4.76272 93.9988 3.2832Z" fill="white"/>
<path d="M93.9988 21.0121C93.9988 19.5338 92.8004 18.3351 91.3224 18.3351C89.8444 18.3351 88.646 19.5338 88.646 21.0121C88.646 22.4904 89.8444 23.6891 91.3224 23.6891C92.8004 23.6903 93.9988 22.4916 93.9988 21.0121Z" fill="white"/>
<path d="M94 38.7424C94 37.2641 92.8016 36.0641 91.3237 36.0641C89.8457 36.0641 88.6473 37.2628 88.6473 38.7424C88.6473 40.2207 89.8457 41.4194 91.3237 41.4194C92.8016 41.4206 94 40.2219 94 38.7424Z" fill="white"/>
<path d="M94 56.4713C94 54.993 92.8016 53.7943 91.3237 53.7943C89.8457 53.7943 88.6473 54.993 88.6473 56.4713C88.6473 57.9496 89.8457 59.1483 91.3237 59.1483C92.8016 59.1495 94 57.9508 94 56.4713Z" fill="white"/>
<path d="M93.9988 74.2002C93.9988 72.7219 92.8004 71.5232 91.3224 71.5232C89.8444 71.5232 88.646 72.7219 88.646 74.2002C88.646 75.6785 89.8444 76.8772 91.3224 76.8772C92.8004 76.8784 93.9988 75.6797 93.9988 74.2002Z" fill="white"/>
<path d="M93.9988 91.9291C93.9988 90.4508 92.8004 89.2521 91.3224 89.2521C89.8444 89.2521 88.646 90.4508 88.646 91.9291C88.646 93.4074 89.8444 94.6062 91.3224 94.6062C92.8004 94.6074 93.9988 93.4087 93.9988 91.9291Z" fill="white"/>
</g>
</svg>
