<svg width="16" height="16" viewBox="0 0 16 16" fill="none" xmlns="http://www.w3.org/2000/svg">
<path d="M6.239 8.95208C6.10993 8.95208 6.00296 8.95208 5.89599 8.95208C5.40261 8.95192 4.90923 8.95563 4.41601 8.9503C4.1214 8.94708 4.02347 8.86108 4.02072 8.57954C4.01346 7.82156 4.0133 7.06342 4.02105 6.30544C4.02395 6.02471 4.12753 5.93823 4.41843 5.93678C4.95392 5.93404 5.48941 5.93597 6.0249 5.93597C6.0896 5.93597 6.15413 5.93597 6.23916 5.93597C6.23916 5.84756 6.23803 5.77722 6.23932 5.70687C6.25191 5.02166 6.2269 4.33305 6.28514 3.65171C6.43132 1.93601 7.74915 0.694498 9.47243 0.629477C10.1935 0.602211 10.9161 0.618345 11.6381 0.62012C11.8775 0.620765 11.9805 0.7237 11.9818 0.96313C11.9856 1.679 11.9858 2.39503 11.9818 3.1109C11.9803 3.35468 11.8804 3.45165 11.6199 3.4581C11.1328 3.47004 10.6454 3.47037 10.1581 3.47763C9.59231 3.48602 9.36933 3.69947 9.35917 4.26545C9.34965 4.79981 9.35707 5.3345 9.35707 5.88838C9.43242 5.89193 9.49566 5.89758 9.55891 5.89758C10.1786 5.89822 10.7983 5.89741 11.418 5.89822C11.822 5.8987 11.9103 5.98567 11.9106 6.38176C11.9113 7.09166 11.9117 7.80172 11.9103 8.51162C11.9096 8.84414 11.8274 8.9282 11.4942 8.92965C10.8564 8.93223 10.2186 8.93062 9.58101 8.93078C9.51551 8.93078 9.45017 8.93078 9.35788 8.93078C9.35788 9.01952 9.35788 9.09551 9.35788 9.1715C9.35788 11.0547 9.35804 12.9378 9.35788 14.821C9.35788 15.3278 9.29867 15.3859 8.78528 15.386C8.09345 15.3862 7.40146 15.3867 6.70963 15.3859C6.32741 15.3854 6.23932 15.2986 6.23932 14.9212C6.23868 13.0137 6.239 11.1065 6.239 9.19925C6.239 9.12778 6.239 9.0563 6.239 8.95208Z" fill="white"/>
</svg>
